<?xml version="1.0" encoding="utf-8"?>
<!-- Generator: Adobe Illustrator 16.0.0, SVG Export Plug-In . SVG Version: 6.00 Build 0)  -->
<!DOCTYPE svg PUBLIC "-//W3C//DTD SVG 1.1//EN" "http://www.w3.org/Graphics/SVG/1.1/DTD/svg11.dtd">
<svg version="1.1" id="Layer_1" xmlns="http://www.w3.org/2000/svg" xmlns:xlink="http://www.w3.org/1999/xlink" x="0px" y="0px"
	 width="1428.5px" height="1015.91px" viewBox="0 0 1428.5 1015.91" enable-background="new 0 0 1428.5 1015.91"
	 xml:space="preserve">
<g>
	<defs>
		<filter id="Adobe_OpacityMaskFilter" filterUnits="userSpaceOnUse" x="211.457" y="934.855" width="575.394" height="62.178">
			<feColorMatrix  type="matrix" values="1 0 0 0 0  0 1 0 0 0  0 0 1 0 0  0 0 0 1 0"/>
		</filter>
	</defs>
	<mask maskUnits="userSpaceOnUse" x="211.457" y="934.855" width="575.394" height="62.178" id="SVGID_1_">
		<g filter="url(#Adobe_OpacityMaskFilter)">
			
				<radialGradient id="SVGID_2_" cx="381.9502" cy="4920.1816" r="348.1787" gradientTransform="matrix(0.8262 0 0 0.0893 183.5869 526.5721)" gradientUnits="userSpaceOnUse">
				<stop  offset="0" style="stop-color:#FFFFFF"/>
				<stop  offset="1" style="stop-color:#14130A"/>
			</radialGradient>
			<path fill="url(#SVGID_2_)" d="M786.851,965.955c0,17.168-128.808,31.078-287.681,31.078
				c-158.923,0-287.713-13.91-287.713-31.078c0-17.189,128.79-31.1,287.713-31.1C658.043,934.855,786.851,948.766,786.851,965.955z"
				/>
		</g>
	</mask>
	<linearGradient id="SVGID_3_" gradientUnits="userSpaceOnUse" x1="499.2427" y1="996.9541" x2="499.0664" y2="935.3751">
		<stop  offset="0" style="stop-color:#4D4848"/>
		<stop  offset="0.3539" style="stop-color:#14130A"/>
		<stop  offset="1" style="stop-color:#14130A"/>
	</linearGradient>
	<path opacity="0.6" mask="url(#SVGID_1_)" fill="url(#SVGID_3_)" d="M786.851,965.955c0,17.168-128.808,31.078-287.681,31.078
		c-158.923,0-287.713-13.91-287.713-31.078c0-17.189,128.79-31.1,287.713-31.1C658.043,934.855,786.851,948.766,786.851,965.955z"/>
	<g>
		<rect x="268.404" y="171.529" fill="#FFFFFF" width="448.969" height="662.529"/>
		<linearGradient id="SVGID_4_" gradientUnits="userSpaceOnUse" x1="437.9146" y1="438.7388" x2="761.6053" y2="817.4789">
			<stop  offset="0.104" style="stop-color:#BDB0AE;stop-opacity:0.1"/>
			<stop  offset="0.5188" style="stop-color:#9D9594;stop-opacity:0.5167"/>
			<stop  offset="1" style="stop-color:#7C7A7A"/>
		</linearGradient>
		<path opacity="0.5" fill="url(#SVGID_4_)" d="M555.275,171.529c0,0,111.261,0,151.04,0c4.854,0,9.664,0,9.664,0
			c0.396,3.219,0.396,13.604,0.396,39.572l-0.842,622.957H269.341"/>
	</g>
	<g>
		<linearGradient id="SVGID_5_" gradientUnits="userSpaceOnUse" x1="670.8477" y1="-90.6045" x2="326.8877" y2="1058.8687">
			<stop  offset="0" style="stop-color:#676767"/>
			<stop  offset="0.1149" style="stop-color:#4A4A4A"/>
			<stop  offset="0.2648" style="stop-color:#2B2B2B"/>
			<stop  offset="0.4108" style="stop-color:#151515"/>
			<stop  offset="0.5496" style="stop-color:#070707"/>
			<stop  offset="0.6735" style="stop-color:#030303"/>
			<stop  offset="0.9894" style="stop-color:#000000"/>
		</linearGradient>
		<path fill="url(#SVGID_5_)" d="M699.512,26H287.057c-27.358,0-49.631,21.456-49.631,47.791v858.025
			c0,26.357,22.251,47.77,49.631,47.77h412.455c27.358,0,49.622-21.412,49.622-47.77V73.771C749.134,47.438,726.87,26,699.512,26z
			 M421.287,100.242h143.991v10.132H421.287V100.242z M493.287,929.589c-15.315,0-27.756-12.437-27.756-27.745
			c0-15.266,12.44-27.706,27.756-27.706c15.298,0,27.771,12.459,27.771,27.706C521.058,917.152,508.585,929.589,493.287,929.589z
			 M715.254,825.75H271.36V167.834h443.894V825.75z"/>
	</g>
	<g>
		<linearGradient id="SVGID_6_" gradientUnits="userSpaceOnUse" x1="444.4697" y1="553.793" x2="1185.6299" y2="553.793">
			<stop  offset="0.4613" style="stop-color:#2093BB"/>
			<stop  offset="0.9373" style="stop-color:#186E8C"/>
		</linearGradient>
		<path fill="url(#SVGID_6_)" d="M970.46,386.884c0,0-28.974-18.461-57.603-12.002c-16.074,3.511-24.477,12.226-29.009,19.524
			l51.15,39.089l-9.356,12.244l-56.039-42.821c-10.701-2.411-28.555-4.479-42.043,3.598c-13.481,8.014-21.39,20.746-25.544,29.067
			l57.756,44.134l-9.305,12.169l-64.813-49.526c-10.19,0.417-24.74,4.049-38.188,19.628c-7.262,8.391-9.709,18.987-10.566,28.166
			l54.559,43.588l-9.368,12.267l-100.424-77.352c17.827-49.014,3.417-105.785-40.257-139.161
			c-53.792-41.062-130.689-30.757-171.758,22.986c-41.102,53.792-30.805,130.644,22.988,171.749
			c42.113,32.178,98.117,32.55,140.276,5.536l170.961,130.641c0,0-91.805-20.286-121.198-0.361
			c-29.292,19.892-25.957,48.763-25.957,48.763s79.391,12.62,158.706,38.01c51.013,16.325,100.763,47.571,133.423,52.559
			c83.329,12.881,154.366-6.663,192.108-56.05c37.687-49.327,59.869-129.624,32.471-178.777
			C1146.094,515.408,970.46,386.884,970.46,386.884z M524.6,482.306c-30.599-23.382-36.482-67.205-13.079-97.829
			c23.384-30.601,67.23-36.465,97.832-13.081c19.942,15.24,29.139,39.069,26.888,62.277l-35.76-27.517
			c0,0-42.836-21.352-60.503,1.767c-17.724,23.196,7.539,56.549,7.539,56.549l38.368,29.325
			C565.504,499.55,542.783,496.199,524.6,482.306z"/>
		<path fill="#B9B9B9" d="M636.241,433.673l45.425,34.985c0,0,36.497-91.844-53.874-148.194c0,0-68.024-43.659-139.58,12.565
			c0,0-64.051,48.621-37.75,131.658c0,0,13.958,42.688,48.135,63.821c34.182,21.133,56.236,22.514,85.236,19.501
			c0,0,21.897-2.045,49.083-18.241l-47.03-35.972c0,0-51.844,18.192-81.027-35.114c-29.186-53.308,22.088-90.475,30.497-94.054
			c8.411-3.583,33.902-20.108,73.999,6.768C609.353,371.396,640.792,395.035,636.241,433.673z"/>
		<path fill="#186E8C" d="M1198.652,609.569c0,0,7.799,176.999-144.277,200.284c0,0,22.095,16.78,42.893,14.184
			c20.794-2.601,87.087-22.097,113.082-114.385C1210.35,709.652,1227.247,648.561,1198.652,609.569z"/>
	</g>
</g>
<circle fill="#FFFFFF" cx="338.046" cy="264.295" r="26.191"/>
</svg>
